<svg width="1024" height="1024" xmlns="http://www.w3.org/2000/svg" xmlns:svg="http://www.w3.org/2000/svg" class="icon">
 <g>
  <title>Layer 1</title>
  <path fill="#3d3d3d" id="svg_1" d="m38.28956,162.54196l383.72447,376.87548c0,0 29.93581,38.58683 92.88653,38.58683c54.83386,0 88.12713,-26.97742 88.12713,-26.97742l386.68695,-388.48489c0,0 -16.2849,-104.94415 -101.73608,-42.7783c-29.88771,21.74321 -279.55498,199.25102 -279.55498,199.25102s-116.90147,43.16511 -199.63783,-14.38973c-82.04664,-57.07592 -269.78239,-196.03988 -269.78239,-196.03988s-88.0596,-36.15034 -100.7138,53.95689z"/>
  <path fill="#3d3d3d" id="svg_2" d="m47.50238,507.40638l383.72346,376.87548c0,0 29.93682,38.58683 92.88652,38.58683c54.83387,0 88.12713,-26.97742 88.12713,-26.97742l386.68695,-388.48489c0,0 -16.2849,-104.94517 -101.73608,-42.77932c-29.8877,21.74321 -279.55497,199.25102 -279.55497,199.25102s-116.90148,43.16613 -199.63783,-14.38973c-82.04563,-57.07593 -269.78138,-196.03989 -269.78138,-196.03989s-88.05959,-36.14931 -100.71379,53.95792l-0.00001,0z"/>
 </g>
</svg>